<svg width="86" height="84" viewBox="0 0 86 84" fill="none" xmlns="http://www.w3.org/2000/svg">
<path d="M37.6305 17.5491L48.3157 6.74965L45.6444 4.04985C40.3018 -1.34987 34.9592 -1.34991 29.6163 4.04949L26.9453 6.74965L37.6305 17.5491Z" fill="black"/>
<path d="M48.3156 33.7484C47.1345 34.9742 26.9453 55.3473 26.9453 55.3473L29.6166 58.0472C32.2879 60.747 40.3016 63.447 45.6442 58.0473L67.0147 36.4483C69.686 33.7484 69.686 28.3487 67.0147 25.6488L53.6583 12.1495L42.9731 22.949C42.9731 22.949 46.98 26.9988 48.3157 28.3487C49.6514 29.6987 49.4968 32.5226 48.3156 33.7484Z" fill="black"/>
<path d="M12.4493 78.2727C12.4493 82.0908 9.57076 83.9999 5.75001 84C1.92934 84 0.974121 81.6136 0.974121 81.6136L3.36206 80.1818C3.36206 80.1818 3.98537 81.0888 5.75001 81.0888C7.66038 81.0888 9.57075 80.1817 9.57071 78.2727V72.5454H12.4493V78.2727Z" fill="black"/>
<path d="M17.4724 78.4051C17.4724 80.4732 18.5146 81.1363 20.0777 81.1363C21.6407 81.1363 22.9432 80.3409 22.9432 78.2727V72.5454H25.8087V78.2727C25.8087 82.0909 23.8984 84 20.0777 84C16.257 84 14.3466 82.5414 14.3466 78.4051V72.5454H17.4724V78.4051Z" fill="black"/>
<path d="M30.1872 72.5454C31.0906 72.5455 31.9219 73.0391 32.3541 73.8318L35.3605 80.1818L38.4863 73.8085C38.9106 73.0302 39.727 72.5454 40.614 72.5454C41.941 72.5454 43.0188 72.5454 43.0364 72.5454V84H40.1709V77.3181L37.3231 82.9522C36.998 83.5948 36.3385 84 35.6179 84H35.1086C34.3851 84 33.7234 83.5914 33.3998 82.9447L30.5846 77.3181V84H27.7191V72.5454H30.1872Z" fill="black"/>
<path fill-rule="evenodd" clip-rule="evenodd" d="M52.5537 72.5454C55.4192 72.5454 57.3295 74.4545 57.3296 76.8409C57.3296 79.2272 55.4192 81.1363 52.5537 81.1363H47.7778V84H44.9123C44.9123 84 44.9123 77.3181 44.9123 75.409C44.9123 73.5 45.77 72.5454 47.7778 72.5454H52.5537ZM47.7778 78.2727H52.5537C53.9864 78.2727 54.464 77.5398 54.464 76.8409C54.464 76.1419 53.9864 75.409 52.5537 75.409H47.7778V78.2727Z" fill="black"/>
<path d="M70.2244 75.409H61.6278V77.3181H69.2693V79.2272H61.6278V81.1363H70.2244V84H61.6278C59.7175 84 58.7623 83.0454 58.7623 81.1363V75.409C58.7623 73.4047 60.1007 72.5455 62.1082 72.5454H70.2244V75.409Z" fill="black"/>
<path fill-rule="evenodd" clip-rule="evenodd" d="M79.7762 72.5454C82.6417 72.5454 84.5521 74.4545 84.5521 76.8409C84.5521 80.1818 81.7333 81.1924 81.6866 81.1363L84.0745 84H80.2538L78.3434 81.1363H75.0003V84H72.1348C72.1348 84 72.1348 77.3181 72.1348 75.409C72.1348 73.5 72.9925 72.5454 75.0003 72.5454H79.7762ZM75.0003 78.2727H79.7762C81.209 78.2727 81.6866 77.5398 81.6866 76.8409C81.6866 76.1419 81.209 75.409 79.7762 75.409H75.0003V78.2727Z" fill="black"/>
</svg>
